:SAMPLES-PER-SECOND 30
:FULLY-SPECIFIED
:DEGREES
224
root  7.546155284 37.26044302 -1.385035571 1.820999146 -56.59600067 -8.457000732
lowerback  7.478079796 -0.682600975 0.3848940134
upperback  3.616660118 -0.9351819754 3.977610111
thorax  -0.3928920031 -0.5381510258 3.966749907
lowerneck  1.439599991 8.636630058 -0.3798069954
upperneck  19.55480003 11.52089977 -0.5013229847
head  5.699910164 5.410610199 0.3997209966
lclavicle  0 -9.442270133e-015 7.951389973e-016
lhumerus  7.165100098 5.745520115 65.75209808
lradius  2.452659701e-031 -2.540335495e-031 133.9940033
lwrist  -7.062250077e-031 -0 9.120409966
lhand  -1.496451383e-031 -27.76390076 20.11240005
lfingers  90 7.125020027 -90
lthumb  89.89689403 5.08795885 91.16245106
rclavicle  0 -9.442270133e-015 7.951389973e-016
rhumerus  8.801989555 27.1977005 -81.24510193
rradius  -2.003807961e-031 2.907507127e-031 124.5739975
rwrist  7.062250077e-031 1.324171889e-031 -36.41289902
rhand  -7.920061211e-032 -33.2840004 9.303460121
rfingers  -90 -7.125020027 -90
rthumb  -92.93752616 -24.25625642 -97.11982154
rfemur  -10.62839985 13.45149994 9.277959824
rtibia  -0 0 54.64889908
rfoot  -4.815919719e-032 -23.57690048 -4.828629971
rtoes  5.373923086 19.29304026 -105.8922705
lfemur  -17.72389984 12.81540012 -2.874419928
ltibia  -0 0 78.30979919
lfoot  -0 -6.137469769 -11.66289997
ltoes  -4.250644065 -19.5611806 -102.515957
225
root  7.502621929 37.20511189 -1.326091083 1.546005249 -56.91899872 -8.666000366
lowerback  7.449910164 -0.8082290292 0.2344910055
upperback  3.752490044 -1.121199965 3.892030001
thorax  -0.2234510034 -0.6361399889 3.974459887
lowerneck  1.236359954 8.614879608 -0.1101190001
upperneck  19.6765995 11.47819996 -0.4598299861
head  5.785160065 5.4052701 0.3826139867
lclavicle  0 -9.442270133e-015 7.951389973e-016
lhumerus  6.126480103 5.463200092 66.54560089
lradius  2.436560804e-031 -2.555780798e-031 133.6320038
lwrist  -7.062250077e-031 -0 9.047400475
lhand  -1.496451383e-031 -27.76390076 20.11240005
lfingers  90 7.125020027 -90
lthumb  89.89689403 5.08795885 91.16245106
rclavicle  0 -9.442270133e-015 7.951389973e-016
rhumerus  7.646480083 27.15270042 -81.83029938
rradius  -1.984633697e-031 2.920628892e-031 124.1969986
rwrist  1.412450015e-030 3.089734409e-031 -36.37760162
rhand  -7.920061211e-032 -33.2840004 9.303460121
rfingers  -90 -7.125020027 -90
rthumb  -92.93752616 -24.25625642 -97.11982154
rfemur  -11.01070023 13.02190018 9.147979736
rtibia  -0 0 55.89580154
rfoot  -4.784165008e-032 -22.68969917 -4.059289932
rtoes  5.373923086 19.29304026 -105.8922705
lfemur  -18.1548996 12.92459965 -1.686699986
ltibia  -0 0 79.54380035
lfoot  -0 -3.184279919 -14.43480015
ltoes  -4.250644065 -19.5611806 -102.515957
226
root  7.454666378 37.19044483 -1.26933554 0.5050048828 -57.21199799 -8.12399292
lowerback  7.567220211 -0.8620499969 -0.4632999897
upperback  3.900719881 -1.242409945 3.713429928
thorax  -0.1156980023 -0.7073529959 4.193520069
lowerneck  0.9928910136 8.597979546 -0.2694289982
upperneck  19.81979942 11.39640045 -0.03013329953
head  5.834549904 5.377369881 0.5495420098
lclavicle  0 -9.442270133e-015 7.951389973e-016
lhumerus  5.534450054 5.185450077 67.35710144
lradius  2.408627235e-031 -2.58212294e-031 133.0090027
lwrist  -1.412450015e-030 -0 9.418109894
lhand  -1.496451383e-031 -27.76390076 20.11240005
lfingers  90 7.125020027 -90
lthumb  89.89689403 5.08795885 91.16245106
rclavicle  0 -9.442270133e-015 7.951389973e-016
rhumerus  6.522610188 27.03689957 -82.27980042
rradius  -1.965629368e-031 2.933452782e-031 123.8249969
rwrist  1.412450015e-030 1.765562519e-031 -36.21509933
rhand  -7.920061211e-032 -33.2840004 9.303460121
rfingers  -90 -7.125020027 -90
rthumb  -92.93752616 -24.25625642 -97.11982154
rfemur  -11.38430023 12.88659954 8.635219574
rtibia  -0 0 57.36040115
rfoot  -4.748823986e-032 -21.64710045 -3.02354002
rtoes  5.373923086 19.29304026 -105.8922705
lfemur  -18.48590088 12.66119957 -0.9347389936
ltibia  -0 0 80.5338974
lfoot  -0 0.3176159859 -16.95210075
ltoes  -4.250644065 -19.5611806 -102.515957
227
root  7.408311048 37.1948903 -1.204957737 -0.8549957275 -57.43299866 -7.347000122
lowerback  7.751930237 -0.8672419786 -1.325049996
upperback  4.078939915 -1.311210036 3.498840094
thorax  -0.01254750043 -0.7562929988 4.46600008
lowerneck  0.6203889847 8.587670326 -0.4569329917
upperneck  20.03849983 11.31719971 0.4784730077
head  5.923289776 5.353380203 0.7537990212
lclavicle  0 -9.442270133e-015 7.951389973e-016
lhumerus  5.377920151 4.809619904 68.22059631
lradius  2.367451904e-031 -2.619926625e-031 132.102005
lwrist  -7.062250077e-031 -1.765562519e-031 9.66411972
lhand  -1.496451383e-031 -27.76390076 20.11240005
lfingers  90 7.125020027 -90
lthumb  89.89689403 5.08795885 91.16245106
rclavicle  0 -9.442270133e-015 7.951389973e-016
rhumerus  5.462460041 26.78969955 -82.69989777
rradius  -1.943867826e-031 2.947918234e-031 123.401001
rwrist  7.062250077e-031 2.206953149e-031 -36.30699921
rhand  -7.920061211e-032 -33.2840004 9.303460121
rfingers  -90 -7.125020027 -90
rthumb  -92.93752616 -24.25625642 -97.11982154
rfemur  -11.69099998 12.99440002 8.028039932
rtibia  -0 0 58.9598999
rfoot  -4.70574963e-032 -20.28470039 -1.995169997
rtoes  5.373923086 19.29304026 -105.8922705
lfemur  -18.69849968 12.20689964 -0.3228540123
ltibia  -0 0 81.34400177
lfoot  -0 3.800620079 -18.82500076
ltoes  -4.250644065 -19.5611806 -102.515957
228
root  7.353977894 37.18599935 -1.127575514 -2.07699585 -57.58599854 -6.697006226
lowerback  7.755249977 -0.832562983 -1.977450013
upperback  4.214809895 -1.311259985 3.192780018
thorax  0.134600997 -0.7669270039 4.515059948
lowerneck  0.2767080069 8.551659584 -0.4498850107
upperneck  20.34490013 11.18640041 1.010669947
head  6.045810223 5.319180012 0.9347379804
lclavicle  0 -9.442270133e-015 7.951389973e-016
lhumerus  5.448150158 4.294670105 69.16899872
lradius  2.315090943e-031 -2.666307927e-031 130.9669952
lwrist  -7.062250077e-031 -0 9.866350174
lhand  -1.496451383e-031 -27.76390076 20.11240005
lfingers  90 7.125020027 -90
lthumb  89.89689403 5.08795885 91.16245106
rclavicle  0 -9.442270133e-015 7.951389973e-016
rhumerus  4.309939861 26.44210052 -83.28710175
rradius  -1.911803167e-031 2.968813347e-031 122.7799988
rwrist  1.412450015e-030 2.648343779e-031 -36.27000046
rhand  -7.920061211e-032 -33.2840004 9.303460121
rfingers  -90 -7.125020027 -90
rthumb  -92.93752616 -24.25625642 -97.11982154
rfemur  -12.12839985 13.13339996 7.462999821
rtibia  -0 0 60.64839935
rfoot  -5.813319222e-032 -18.36050034 -1.194839954
rtoes  5.373923086 19.29304026 -105.8922705
lfemur  -18.82859993 11.87880039 0.3058820069
ltibia  -0 0 82.0196991
lfoot  -0 4.78178978 -19.7343998
ltoes  -4.250644065 -19.5611806 -102.515957
229
root  7.290511244 37.16377799 -1.036506657 -3.99899292 -57.65000153 -5.302993774
lowerback  7.745960236 -0.7857450247 -2.909310102
upperback  4.310870171 -1.309380054 2.708960056
thorax  0.2505100071 -0.7779179811 4.537270069
lowerneck  -0.05293760076 8.530269623 -0.4673570096
upperneck  20.74419975 11.07380009 1.534420013
head  6.195660114 5.290679932 1.120390058
lclavicle  0 -9.442270133e-015 7.951389973e-016
lhumerus  5.651040077 3.88203001 70.08409882
lradius  2.257796633e-031 -2.714995101e-031 129.746994
lwrist  -7.062250077e-031 -0 10.43459988
lhand  -1.496451383e-031 -27.76390076 20.11240005
lfingers  90 7.125020027 -90
lthumb  89.89689403 5.08795885 91.16245106
rclavicle  0 -9.442270133e-015 7.951389973e-016
rhumerus  3.163800001 26.16150093 -83.76730347
rradius  -1.876539107e-031 2.991228011e-031 122.1019974
rwrist  7.062250077e-031 3.972515668e-031 -35.99940109
rhand  -7.920061211e-032 -33.2840004 9.303460121
rfingers  -90 -7.125020027 -90
rthumb  -92.93752616 -24.25625642 -97.11982154
rfemur  -12.55910015 13.18719959 6.379479885
rtibia  -0 0 62.37850189
rfoot  -4.882265246e-032 -16.14240074 -0.109003
rtoes  5.373923086 19.29304026 -105.8922705
lfemur  -18.7385006 11.61289978 0.4029229879
ltibia  -0 0 82.50550079
lfoot  -0 2.672369957 -17.71689987
ltoes  -4.250644065 -19.5611806 -102.515957
230
root  7.215288868 37.1493332 -0.9252978122 -6.486999512 -57.6210022 -3.401000977
lowerback  7.758699894 -0.7581899762 -4.112530231
upperback  4.476079941 -1.352789998 2.156150103
thorax  0.438380003 -0.821747005 4.644090176
lowerneck  -0.3839919865 8.62831974 -0.7495549917
upperneck  21.04019928 11.13290024 2.101560116
head  6.293580055 5.333479881 1.366129994
lclavicle  0 -9.442270133e-015 7.951389973e-016
lhumerus  6.107890129 3.544699907 70.80960083
lradius  2.195474993e-031 -2.765634392e-031 128.4440002
lwrist  -7.062250077e-031 -1.765562519e-031 10.99170017
lhand  -1.496451383e-031 -27.76390076 20.11240005
lfingers  90 7.125020027 -90
lthumb  89.89689403 5.08795885 91.16245106
rclavicle  0 -9.442270133e-015 7.951389973e-016
rhumerus  2.347800016 25.9484005 -84.04149628
rradius  -1.842747719e-031 3.012162824e-031 121.4570007
rwrist  7.062250077e-031 -8.827812596e-032 -35.85749817
rhand  -7.920061211e-032 -33.2840004 9.303460121
rfingers  -90 -7.125020027 -90
rthumb  -92.93752616 -24.25625642 -97.11982154
rfemur  -12.81130028 13.3277998 5.003749847
rtibia  -0 0 64.04650116
rfoot  -4.546610873e-032 -13.87709999 1.200749993
rtoes  5.373923086 19.29304026 -105.8922705
lfemur  -18.48220062 11.29829979 0.1699229926
ltibia  -0 0 82.80989838
lfoot  -0 0.8859840035 -14.63850021
ltoes  -4.250644065 -19.5611806 -102.515957
